<svg xmlns="http://www.w3.org/2000/svg" xmlns:xlink="http://www.w3.org/1999/xlink" width="1366" zoomAndPan="magnify" viewBox="0 0 1024.5 576" height="768" preserveAspectRatio="xMidYMid meet" version="1.0"><defs><clipPath id="2d10d0e302"><path d="M 293.835938 142.464844 L 474.496094 142.464844 L 474.496094 309.632812 L 293.835938 309.632812 Z M 293.835938 142.464844 " clip-rule="nonzero"/></clipPath></defs><g clip-path="url(#2d10d0e302)"><path fill="#fe03b5" d="M 416.25 309.632812 C 416.058594 309.632812 415.871094 309.609375 415.683594 309.558594 C 412.53125 309.109375 405.019531 307.605469 401.601562 303.253906 C 399.507812 300.449219 397.617188 297.511719 395.925781 294.441406 C 395.050781 292.917969 394.152344 291.390625 393.238281 289.949219 C 390.015625 284.84375 387.058594 280.128906 384.203125 275.550781 L 383.328125 274.15625 C 382.632812 273.074219 381.925781 271.964844 381.285156 270.8125 L 381.027344 270.898438 L 379.257812 271.453125 C 375.589844 272.667969 372.214844 273.875 368.960938 275.140625 C 365.707031 276.40625 362.402344 278.023438 359.257812 279.574219 C 355.832031 281.335938 352.324219 282.921875 348.738281 284.328125 C 348.359375 284.464844 347.972656 284.53125 347.570312 284.523438 C 346.046875 284.523438 344.121094 283.714844 342.726562 283.121094 L 341.851562 282.761719 L 341.089844 282.496094 C 339.269531 281.832031 336.777344 280.914062 335.710938 279.441406 C 334.25 277.367188 334.949219 275.628906 335.589844 273.972656 C 335.710938 273.660156 335.839844 273.332031 335.957031 272.996094 C 336.519531 271.410156 337.066406 269.785156 337.59375 268.210938 C 337.890625 267.328125 338.1875 266.441406 338.492188 265.558594 C 339.683594 262.046875 340.882812 258.539062 342.085938 255.027344 C 342.722656 253.15625 343.359375 251.285156 344 249.421875 C 344.402344 248.230469 344.851562 247.015625 345.277344 245.839844 C 346.671875 242.40625 347.738281 238.875 348.484375 235.242188 C 348.722656 233.855469 348.914062 232.421875 348.484375 231.351562 C 338.621094 228.753906 328.988281 225.472656 319.585938 221.511719 L 317.726562 220.746094 C 309.714844 217.40625 300.632812 213.621094 294.378906 207.28125 L 294.3125 207.203125 C 293.976562 206.835938 293.894531 206.414062 294.058594 205.945312 C 294.222656 205.515625 294.527344 205.261719 294.980469 205.183594 C 298.703125 203.820312 302.511719 202.78125 306.40625 202.070312 L 308.691406 201.582031 C 311.6875 200.933594 314.726562 200.183594 317.660156 199.46875 C 319.183594 199.09375 320.707031 198.703125 322.28125 198.339844 C 327.355469 197.132812 331.863281 196.050781 336.0625 195.109375 C 336.945312 194.90625 337.867188 194.746094 338.851562 194.570312 C 341.730469 194.058594 344.699219 193.53125 346.765625 192.011719 C 349.050781 190.335938 349.574219 187.664062 350.023438 184.597656 C 350.785156 179.570312 351.296875 174.570312 351.722656 170.34375 C 352.25 165.242188 352.675781 160.25 353.03125 156.046875 C 353.101562 155.191406 353.148438 154.332031 353.199219 153.414062 C 353.382812 149.988281 353.574219 146.449219 355.152344 143.320312 C 355.316406 143.046875 355.542969 142.839844 355.832031 142.695312 C 356.121094 142.554688 356.425781 142.503906 356.742188 142.542969 C 358.210938 142.6875 359.625 143.046875 360.984375 143.617188 L 361.167969 143.679688 C 365.199219 145.097656 369.371094 146.570312 372.222656 150.644531 C 374.644531 154.101562 377.394531 157.441406 380.042969 160.679688 L 380.554688 161.296875 C 383.410156 164.773438 386.375 168.269531 389.246094 171.640625 L 389.847656 172.351562 C 391.242188 173.984375 392.679688 175.671875 394.082031 177.339844 C 394.34375 177.65625 394.601562 177.996094 394.84375 178.339844 L 396.183594 177.988281 L 403.742188 176.035156 L 418.214844 172.289062 C 428.808594 169.558594 437.707031 167.300781 446.710938 165.132812 C 447.054688 165.046875 447.40625 165.007812 447.761719 165.011719 C 449.582031 165.011719 451.675781 165.925781 453.359375 166.660156 L 454.320312 167.070312 L 454.832031 167.261719 C 457.292969 168.179688 459.707031 169.207031 459.875 170.863281 C 460.078125 172.894531 459.371094 174.257812 458.625 175.699219 L 458.296875 176.328125 C 457.535156 177.777344 456.855469 179.273438 456.164062 180.714844 C 455.789062 181.476562 455.402344 182.324219 455.015625 183.125 C 453.140625 186.992188 450.90625 191.5625 448.601562 196.09375 C 446.140625 200.972656 443.40625 205.777344 440.761719 210.425781 C 438.582031 214.238281 436.320312 218.222656 434.242188 222.1875 C 432.71875 225.050781 432.878906 226.667969 434.789062 228.582031 C 437.285156 230.980469 439.929688 233.199219 442.71875 235.242188 C 443.832031 236.097656 445.003906 236.976562 446.078125 237.859375 C 454.222656 244.398438 461.535156 250.351562 468.664062 256.933594 C 470.785156 258.683594 472.582031 260.71875 474.058594 263.039062 C 474.363281 263.394531 474.433594 263.796875 474.269531 264.238281 C 474.183594 264.449219 474.046875 264.625 473.863281 264.761719 C 473.679688 264.902344 473.472656 264.980469 473.242188 265 L 473.105469 265 C 468.433594 265.105469 463.691406 265.390625 459.105469 265.664062 C 455.546875 265.878906 451.875 266.097656 448.25 266.234375 C 446.308594 266.304688 444.304688 266.34375 442.15625 266.34375 C 440.632812 266.34375 439.109375 266.34375 437.433594 266.289062 L 436.746094 266.289062 C 436.417969 266.289062 436.085938 266.289062 435.75 266.289062 C 434.460938 266.289062 433.699219 266.519531 433.199219 267.050781 C 432.183594 268.121094 431.550781 270.105469 430.988281 271.835938 C 430.777344 272.515625 430.570312 273.15625 430.339844 273.726562 C 428.894531 277.476562 427.4375 281.359375 426.023438 285.171875 C 423.265625 292.6875 420.507812 300.632812 417.820312 308.824219 C 417.757812 309.003906 417.652344 309.152344 417.507812 309.269531 C 417.128906 309.535156 416.710938 309.660156 416.25 309.632812 Z M 416.25 309.632812 " fill-opacity="1" fill-rule="nonzero"/></g><path fill="#110f0f" d="M 459.265625 257.667969 C 458.054688 255.769531 456.582031 254.101562 454.847656 252.671875 C 448.753906 247.054688 442.308594 241.835938 435.847656 236.648438 C 432.671875 234.089844 429.152344 231.679688 426.28125 228.78125 C 424.253906 226.738281 424.398438 224.921875 425.6875 222.472656 C 429.5625 215.0625 434.003906 207.976562 437.785156 200.492188 C 439.613281 196.859375 441.410156 193.207031 443.175781 189.535156 C 444.105469 187.625 444.996094 185.71875 445.949219 183.796875 C 446.710938 182.355469 447.367188 181.324219 447.199219 179.628906 C 447.078125 178.449219 443.800781 177.402344 443 177.082031 C 441.476562 176.449219 438.796875 175.066406 437.066406 175.480469 C 429.046875 177.410156 421.070312 179.453125 413.066406 181.515625 L 400.878906 184.667969 L 394.515625 186.3125 L 392.863281 186.742188 C 392.550781 186.300781 392.238281 185.871094 391.941406 185.511719 C 390.707031 184.058594 389.472656 182.601562 388.234375 181.148438 C 385.652344 178.097656 383.0625 175.046875 380.53125 171.992188 C 378.117188 169.046875 375.65625 166.085938 373.46875 162.96875 C 371.285156 159.847656 368.136719 158.648438 364.535156 157.390625 C 364.070312 157.222656 360.804688 155.949219 360.414062 156.726562 C 358.824219 159.882812 358.996094 163.707031 358.707031 167.164062 C 358.367188 171.183594 358.015625 175.207031 357.605469 179.226562 C 357.191406 183.246094 356.742188 187.261719 356.148438 191.257812 C 355.78125 193.804688 355.289062 196.410156 353.101562 198.027344 C 350.59375 199.878906 346.71875 200.101562 343.785156 200.773438 C 339.917969 201.664062 336.050781 202.570312 332.183594 203.496094 C 328.375 204.40625 324.566406 205.394531 320.757812 206.234375 C 316.949219 207.074219 312.996094 207.761719 309.28125 209.289062 C 308.976562 209.339844 308.914062 209.492188 309.113281 209.730469 C 314.617188 215.332031 322.867188 218.511719 330.082031 221.511719 C 338.054688 224.863281 346.226562 227.636719 354.59375 229.828125 C 354.648438 229.878906 354.691406 229.9375 354.730469 230.003906 C 355.304688 231.167969 355.082031 232.695312 354.875 233.917969 C 354.183594 238.042969 352.4375 242.066406 351.066406 246.007812 L 346.421875 259.605469 C 345.714844 261.695312 345.019531 263.792969 344.289062 265.886719 C 343.671875 267.640625 342.765625 268.9375 343.984375 270.59375 C 344.859375 271.828125 347.457031 272.628906 348.765625 273.132812 C 350.078125 273.636719 352.660156 274.957031 354.015625 274.453125 C 359.820312 272.277344 365.226562 268.976562 371.046875 266.710938 C 373.917969 265.585938 376.828125 264.558594 379.761719 263.597656 C 380.523438 263.335938 381.285156 263.101562 382.101562 262.832031 C 382.910156 264.359375 383.914062 265.886719 384.835938 267.335938 C 387.375 271.402344 389.914062 275.449219 392.453125 279.464844 C 394.738281 283.097656 396.808594 287.234375 399.453125 290.605469 C 401.882812 293.710938 407.160156 295.113281 410.878906 295.632812 C 411.199219 295.746094 411.488281 295.699219 411.753906 295.488281 C 413.949219 288.804688 416.257812 282.160156 418.679688 275.550781 C 419.867188 272.320312 421.082031 269.105469 422.320312 265.898438 C 423 264.160156 423.554688 261.414062 424.894531 260.019531 C 425.9375 258.910156 427.652344 259.15625 429.046875 259.179688 C 432.09375 259.238281 435.101562 259.246094 438.132812 259.132812 C 445.125 258.875 452.097656 258.246094 459.089844 258.09375 C 459.402344 258.066406 459.460938 257.910156 459.265625 257.667969 Z M 459.265625 257.667969 " fill-opacity="1" fill-rule="nonzero"/></svg>